# Blender v2.62 (sub 0) OBJ File: ''
# www.blender.org
o Mesh_Mesh_Cone.002
v 0.000000 1.200000 0.000000
v 0.000000 1.200000 -2.000000
v 0.390181 1.200000 -1.961571
v 0.765367 1.200000 -1.847759
v 1.111140 1.200000 -1.662939
v 1.414214 1.200000 -1.414214
v 1.662939 1.200000 -1.111140
v 1.847759 1.200000 -0.765367
v 1.961571 1.200000 -0.390181
v 2.000000 1.200000 0.000000
v 1.961571 1.200000 0.390180
v 1.847759 1.200000 0.765367
v 1.662939 1.200000 1.111140
v 1.414214 1.200000 1.414214
v 1.111140 1.200000 1.662939
v 0.765367 1.200000 1.847759
v 0.390180 1.200000 1.961571
v -0.000001 1.200000 2.000000
v -0.390181 1.200000 1.961570
v -0.765368 1.200000 1.847759
v -1.111141 1.200000 1.662939
v -1.414214 1.200000 1.414213
v -1.662940 1.200000 1.111139
v -1.847760 1.200000 0.765365
v -1.961571 1.200000 0.390179
v -2.000000 1.200000 -0.000002
v -1.961570 1.200000 -0.390183
v -1.847758 1.200000 -0.765369
v -1.662938 1.200000 -1.111143
v -1.414212 1.200000 -1.414215
v -1.111138 1.200000 -1.662941
v -0.765364 1.200000 -1.847760
v -0.390178 1.200000 -1.961571
v 0.033683 0.200000 -0.169335
v 0.000000 0.200000 -0.172653
v 0.000000 0.002425 -0.863263
v 0.168414 0.002425 -0.846676
v 0.066071 0.200000 -0.159510
v 0.330356 0.002425 -0.797551
v 0.095921 0.200000 -0.143556
v 0.479603 0.002425 -0.717777
v 0.122084 0.200000 -0.122084
v 0.610419 0.002425 -0.610419
v 0.143555 0.200000 -0.095921
v 0.717777 0.002425 -0.479603
v 0.159510 0.200000 -0.066072
v 0.797551 0.002425 -0.330357
v 0.169335 0.200000 -0.033683
v 0.846676 0.002425 -0.168414
v 0.172653 0.200000 0.000000
v 0.863263 0.002425 0.000000
v 0.169335 0.200000 0.033683
v 0.846675 0.002425 0.168414
v 0.159510 0.200000 0.066071
v 0.797551 0.002425 0.330356
v 0.143556 0.200000 0.095920
v 0.717777 0.002425 0.479603
v 0.122084 0.200000 0.122084
v 0.610419 0.002425 0.610419
v 0.095921 0.200000 0.143555
v 0.479603 0.002425 0.717777
v 0.066071 0.200000 0.159510
v 0.330356 0.002425 0.797551
v 0.033683 0.200000 0.169335
v 0.168414 0.002425 0.846676
v 0.000000 0.200000 0.172652
v 0.000000 0.002425 0.863263
v -0.033683 0.200000 0.169335
v -0.168415 0.002425 0.846675
v -0.066071 0.200000 0.159510
v -0.330357 0.002425 0.797551
v -0.095921 0.200000 0.143555
v -0.479604 0.002425 0.717776
v -0.122084 0.200000 0.122083
v -0.610419 0.002425 0.610419
v -0.143555 0.200000 0.095920
v -0.717777 0.002425 0.479603
v -0.159510 0.200000 0.066071
v -0.797551 0.002425 0.330356
v -0.169335 0.200000 0.033682
v -0.846676 0.002425 0.168414
v -0.172652 0.200000 0.000000
v -0.863263 0.002425 -0.000001
v -0.169335 0.200000 -0.033683
v -0.846675 0.002425 -0.168415
v -0.159510 0.200000 -0.066072
v -0.797551 0.002425 -0.330357
v -0.143555 0.200000 -0.095921
v -0.717776 0.002425 -0.479604
v -0.122084 0.200000 -0.122084
v -0.610418 0.002425 -0.610420
v -0.095920 0.200000 -0.143556
v -0.479602 0.002425 -0.717778
v -0.066071 0.200000 -0.159511
v -0.330355 0.002425 -0.797552
v -0.033682 0.200000 -0.169335
v -0.168413 0.002425 -0.846676
vn -0.000000 1.000000 0.000000
vn 0.027085 0.961076 -0.274952
vn 0.027080 0.961077 -0.274952
vn 0.080202 0.961077 -0.264385
vn 0.080201 0.961077 -0.264385
vn 0.130231 0.961077 -0.243662
vn 0.130238 0.961076 -0.243660
vn 0.175275 0.961076 -0.213567
vn 0.175272 0.961076 -0.213569
vn 0.213571 0.961076 -0.175270
vn 0.213569 0.961076 -0.175272
vn 0.243657 0.961077 -0.130241
vn 0.243659 0.961077 -0.130239
vn 0.264386 0.961076 -0.080199
vn 0.264386 0.961077 -0.080201
vn 0.274951 0.961077 -0.027085
vn 0.274952 0.961076 -0.027080
vn 0.274951 0.961077 0.027085
vn 0.274952 0.961077 0.027082
vn 0.264386 0.961076 0.080203
vn 0.264386 0.961076 0.080200
vn 0.243661 0.961077 0.130235
vn 0.243660 0.961076 0.130239
vn 0.213570 0.961077 0.175270
vn 0.213569 0.961076 0.175272
vn 0.175270 0.961076 0.213572
vn 0.175272 0.961076 0.213569
vn 0.130237 0.961076 0.243660
vn 0.130238 0.961076 0.243660
vn 0.080202 0.961077 0.264385
vn 0.080201 0.961076 0.264386
vn 0.027076 0.961076 0.274953
vn 0.027080 0.961077 0.274952
vn -0.027077 0.961076 0.274953
vn -0.027081 0.961076 0.274952
vn -0.080202 0.961076 0.264386
vn -0.080200 0.961076 0.264386
vn -0.130238 0.961077 0.243660
vn -0.130240 0.961076 0.243659
vn -0.175275 0.961076 0.213567
vn -0.175272 0.961077 0.213569
vn -0.213571 0.961076 0.175270
vn -0.213569 0.961077 0.175272
vn -0.243658 0.961077 0.130241
vn -0.243659 0.961076 0.130238
vn -0.264386 0.961076 0.080200
vn -0.264385 0.961077 0.080201
vn -0.274952 0.961076 0.027077
vn -0.274952 0.961077 0.027080
vn -0.274953 0.961076 -0.027076
vn -0.274952 0.961077 -0.027081
vn -0.264386 0.961077 -0.080199
vn -0.264386 0.961077 -0.080200
vn -0.243658 0.961076 -0.130241
vn -0.243659 0.961076 -0.130239
vn -0.213571 0.961076 -0.175269
vn -0.213569 0.961076 -0.175272
vn -0.175271 0.961076 -0.213570
vn -0.175272 0.961077 -0.213569
vn -0.130241 0.961077 -0.243657
vn -0.130238 0.961076 -0.243659
vn -0.080192 0.961076 -0.264389
vn -0.080200 0.961077 -0.264386
vn -0.027085 0.961077 -0.274951
vn -0.027080 0.961077 -0.274952
vn -0.047229 -0.876257 -0.479524
vn -0.047238 -0.876257 -0.479523
vn -0.139872 -0.876257 -0.461097
vn -0.139858 -0.876257 -0.461099
vn -0.227144 -0.876257 -0.424946
vn -0.227139 -0.876257 -0.424950
vn -0.305677 -0.876257 -0.372473
vn -0.305679 -0.876257 -0.372471
vn -0.372473 -0.876257 -0.305675
vn -0.372470 -0.876257 -0.305680
vn -0.424947 -0.876257 -0.227144
vn -0.424949 -0.876257 -0.227140
vn -0.461096 -0.876257 -0.139871
vn -0.461096 -0.876257 -0.139873
vn -0.479524 -0.876257 -0.047230
vn -0.479525 -0.876256 -0.047222
vn -0.479525 -0.876257 0.047224
vn -0.479524 -0.876257 0.047228
vn -0.461097 -0.876257 0.139870
vn -0.461096 -0.876257 0.139871
vn -0.424949 -0.876257 0.227139
vn -0.424947 -0.876257 0.227144
vn -0.372474 -0.876257 0.305675
vn -0.372471 -0.876257 0.305678
vn -0.305684 -0.876257 0.372467
vn -0.305679 -0.876257 0.372470
vn -0.227138 -0.876257 0.424949
vn -0.227140 -0.876257 0.424948
vn -0.139875 -0.876257 0.461095
vn -0.139871 -0.876257 0.461096
vn -0.047222 -0.876257 0.479524
vn -0.047230 -0.876257 0.479524
vn 0.047222 -0.876257 0.479525
vn 0.047228 -0.876257 0.479524
vn 0.139874 -0.876257 0.461095
vn 0.139872 -0.876257 0.461096
vn 0.227138 -0.876257 0.424950
vn 0.227140 -0.876257 0.424948
vn 0.305676 -0.876257 0.372473
vn 0.305678 -0.876257 0.372471
vn 0.372472 -0.876257 0.305677
vn 0.372471 -0.876257 0.305678
vn 0.424952 -0.876257 0.227133
vn 0.424949 -0.876257 0.227140
vn 0.461096 -0.876257 0.139874
vn 0.461096 -0.876257 0.139872
vn 0.479524 -0.876257 0.047236
vn 0.479524 -0.876257 0.047228
vn 0.479523 -0.876257 -0.047236
vn 0.479524 -0.876257 -0.047229
vn 0.461097 -0.876257 -0.139871
vn 0.461096 -0.876257 -0.139873
vn 0.424946 -0.876257 -0.227144
vn 0.424948 -0.876257 -0.227141
vn 0.372474 -0.876257 -0.305675
vn 0.372472 -0.876257 -0.305678
vn 0.305684 -0.876256 -0.372467
vn 0.305678 -0.876257 -0.372472
vn 0.227127 -0.876257 -0.424955
vn 0.227140 -0.876257 -0.424949
vn 0.139875 -0.876257 -0.461096
vn 0.139873 -0.876257 -0.461096
vn 0.047236 -0.876256 -0.479524
vn 0.047228 -0.876257 -0.479524
s off
f 1//1 3//1 2//1
f 1//1 4//1 3//1
f 1//1 5//1 4//1
f 1//1 6//1 5//1
f 1//1 7//1 6//1
f 1//1 8//1 7//1
f 1//1 9//1 8//1
f 1//1 10//1 9//1
f 1//1 11//1 10//1
f 1//1 12//1 11//1
f 1//1 13//1 12//1
f 1//1 14//1 13//1
f 1//1 15//1 14//1
f 1//1 16//1 15//1
f 1//1 17//1 16//1
f 1//1 18//1 17//1
f 1//1 19//1 18//1
f 1//1 20//1 19//1
f 1//1 21//1 20//1
f 1//1 22//1 21//1
f 1//1 23//1 22//1
f 1//1 24//1 23//1
f 1//1 25//1 24//1
f 1//1 26//1 25//1
f 1//1 27//1 26//1
f 1//1 28//1 27//1
f 1//1 29//1 28//1
f 1//1 30//1 29//1
f 1//1 31//1 30//1
f 1//1 32//1 31//1
f 1//1 33//1 32//1
f 33//1 1//1 2//1
f 34//2 36//2 35//2
f 34//3 37//3 36//3
f 38//4 37//4 34//4
f 38//5 39//5 37//5
f 40//6 39//6 38//6
f 40//7 41//7 39//7
f 42//8 41//8 40//8
f 42//9 43//9 41//9
f 44//10 43//10 42//10
f 44//11 45//11 43//11
f 46//12 45//12 44//12
f 46//13 47//13 45//13
f 48//14 47//14 46//14
f 48//15 49//15 47//15
f 50//16 49//16 48//16
f 50//17 51//17 49//17
f 52//18 53//18 50//18
f 50//19 53//19 51//19
f 54//20 53//20 52//20
f 54//21 55//21 53//21
f 56//22 55//22 54//22
f 56//23 57//23 55//23
f 58//24 57//24 56//24
f 58//25 59//25 57//25
f 60//26 59//26 58//26
f 60//27 61//27 59//27
f 62//28 61//28 60//28
f 62//29 63//29 61//29
f 64//30 63//30 62//30
f 64//31 65//31 63//31
f 66//32 65//32 64//32
f 66//33 67//33 65//33
f 68//34 69//34 66//34
f 66//35 69//35 67//35
f 70//36 69//36 68//36
f 70//37 71//37 69//37
f 72//38 71//38 70//38
f 72//39 73//39 71//39
f 74//40 73//40 72//40
f 74//41 75//41 73//41
f 76//42 75//42 74//42
f 76//43 77//43 75//43
f 78//44 77//44 76//44
f 78//45 79//45 77//45
f 80//46 79//46 78//46
f 80//47 81//47 79//47
f 82//48 81//48 80//48
f 82//49 83//49 81//49
f 84//50 85//50 82//50
f 82//51 85//51 83//51
f 86//52 85//52 84//52
f 86//53 87//53 85//53
f 88//54 87//54 86//54
f 88//55 89//55 87//55
f 90//56 89//56 88//56
f 90//57 91//57 89//57
f 92//58 91//58 90//58
f 92//59 93//59 91//59
f 94//60 93//60 92//60
f 94//61 95//61 93//61
f 96//62 95//62 94//62
f 96//63 97//63 95//63
f 35//64 97//64 96//64
f 35//65 36//65 97//65
f 35//66 33//66 2//66
f 35//67 96//67 33//67
f 32//68 33//68 94//68
f 94//69 33//69 96//69
f 31//70 94//70 92//70
f 31//71 32//71 94//71
f 30//72 92//72 90//72
f 30//73 31//73 92//73
f 29//74 90//74 88//74
f 29//75 30//75 90//75
f 28//76 88//76 86//76
f 28//77 29//77 88//77
f 27//78 86//78 84//78
f 27//79 28//79 86//79
f 26//80 27//80 82//80
f 82//81 27//81 84//81
f 25//82 82//82 80//82
f 25//83 26//83 82//83
f 24//84 80//84 78//84
f 24//85 25//85 80//85
f 23//86 24//86 76//86
f 76//87 24//87 78//87
f 22//88 76//88 74//88
f 22//89 23//89 76//89
f 21//90 74//90 72//90
f 21//91 22//91 74//91
f 20//92 72//92 70//92
f 20//93 21//93 72//93
f 19//94 70//94 68//94
f 19//95 20//95 70//95
f 18//96 68//96 66//96
f 18//97 19//97 68//97
f 17//98 66//98 64//98
f 17//99 18//99 66//99
f 16//100 64//100 62//100
f 16//101 17//101 64//101
f 15//102 62//102 60//102
f 15//103 16//103 62//103
f 14//104 60//104 58//104
f 14//105 15//105 60//105
f 13//106 58//106 56//106
f 13//107 14//107 58//107
f 12//108 56//108 54//108
f 12//109 13//109 56//109
f 11//110 54//110 52//110
f 11//111 12//111 54//111
f 10//112 52//112 50//112
f 10//113 11//113 52//113
f 9//114 50//114 48//114
f 9//115 10//115 50//115
f 8//116 48//116 46//116
f 8//117 9//117 48//117
f 7//118 46//118 44//118
f 7//119 8//119 46//119
f 6//120 44//120 42//120
f 6//121 7//121 44//121
f 5//122 42//122 40//122
f 5//123 6//123 42//123
f 4//124 40//124 38//124
f 4//125 5//125 40//125
f 3//126 38//126 34//126
f 3//127 4//127 38//127
f 2//128 34//128 35//128
f 2//129 3//129 34//129
