# Blender v2.62 (sub 0) OBJ File: ''
# www.blender.org
o Mesh_Mesh_Cylinder.003
v 0.000000 1.848601 0.000000
v 0.195092 1.848601 -0.980785
v 0.000002 1.848601 -1.000000
v 0.382685 1.848601 -0.923879
v 0.555572 1.848601 -0.831469
v 0.707108 1.848601 -0.707105
v 0.831471 1.848601 -0.555569
v 0.923880 1.848601 -0.382682
v 0.980786 1.848601 -0.195088
v 1.000000 1.848601 0.000002
v 0.980785 1.848601 0.195092
v 0.923879 1.848601 0.382685
v 0.831469 1.848601 0.555571
v 0.707106 1.848601 0.707107
v 0.555570 1.848601 0.831470
v 0.382684 1.848601 0.923880
v 0.195091 1.848601 0.980785
v 0.000001 1.848601 1.000000
v -0.195089 1.848601 0.980786
v -0.382682 1.848601 0.923880
v -0.555568 1.848601 0.831471
v -0.707105 1.848601 0.707109
v -0.831468 1.848601 0.555573
v -0.923878 1.848601 0.382686
v -0.980785 1.848601 0.195094
v -1.000000 1.848601 0.000004
v -0.980786 1.848601 -0.195086
v -0.923881 1.848601 -0.382679
v -0.831473 1.848601 -0.555566
v -0.707111 1.848601 -0.707103
v -0.555575 1.848601 -0.831466
v -0.382689 1.848601 -0.923877
v -0.195097 1.848601 -0.980784
v 0.000000 1.641082 -0.764740
v 0.000000 1.641082 0.000000
v -0.149192 1.641082 -0.750046
v -0.292653 1.641082 -0.706528
v -0.424866 1.641082 -0.635859
v -0.540752 1.641082 -0.540754
v -0.635858 1.641082 -0.424868
v -0.706528 1.641082 -0.292654
v -0.750046 1.641082 -0.149194
v -0.764740 1.641082 -0.000001
v -0.750046 1.641082 0.149193
v -0.706528 1.641082 0.292653
v -0.635859 1.641082 0.424867
v -0.540754 1.641082 0.540753
v -0.424867 1.641082 0.635858
v -0.292654 1.641082 0.706528
v -0.149194 1.641082 0.750046
v 0.000000 1.641082 0.764740
v 0.149193 1.641082 0.750046
v 0.292653 1.641082 0.706528
v 0.424867 1.641082 0.635859
v 0.540753 1.641082 0.540753
v 0.635858 1.641082 0.424867
v 0.706528 1.641082 0.292653
v 0.750046 1.641082 0.149193
v 0.764740 1.641082 0.000000
v 0.750046 1.641082 -0.149193
v 0.706528 1.641082 -0.292653
v 0.635858 1.641082 -0.424867
v 0.540753 1.641082 -0.540753
v 0.424867 1.641082 -0.635858
v 0.292653 1.641082 -0.706528
v 0.149193 1.641082 -0.750046
v 0.000000 0.004824 -0.609598
v 0.118927 0.004824 -0.597885
v 0.233283 0.004824 -0.563195
v 0.338675 0.004824 -0.506862
v 0.431051 0.004824 -0.431051
v 0.506862 0.004824 -0.338675
v 0.563195 0.004824 -0.233283
v 0.597885 0.004824 -0.118927
v 0.609598 0.004824 0.000000
v 0.597885 0.004824 0.118927
v 0.563195 0.004824 0.233283
v 0.506862 0.004824 0.338675
v 0.431051 0.004824 0.431051
v 0.338675 0.004824 0.506862
v 0.233283 0.004824 0.563195
v 0.118927 0.004824 0.597885
v 0.000000 0.004824 0.609598
v -0.118927 0.004824 0.597885
v -0.233283 0.004824 0.563195
v -0.338675 0.004824 0.506862
v -0.431051 0.004824 0.431051
v -0.506863 0.004824 0.338674
v -0.563195 0.004824 0.233283
v -0.597885 0.004824 0.118926
v -0.609598 0.004824 -0.000001
v -0.597885 0.004824 -0.118927
v -0.563195 0.004824 -0.233284
v -0.506862 0.004824 -0.338675
v -0.431050 0.004824 -0.431051
v -0.338674 0.004824 -0.506863
v -0.233282 0.004824 -0.563195
v -0.118926 0.004824 -0.597885
v 0.000000 0.004824 -0.797131
v -0.155511 0.004824 -0.781814
v -0.305048 0.004824 -0.736453
v -0.442861 0.004824 -0.662791
v -0.563656 0.004824 -0.563657
v -0.662789 0.004824 -0.442863
v -0.736452 0.004824 -0.305050
v -0.781814 0.004824 -0.155513
v -0.797131 0.004824 -0.000001
v -0.781814 0.004824 0.155512
v -0.736453 0.004824 0.305048
v -0.662790 0.004824 0.442862
v -0.563657 0.004824 0.563656
v -0.442862 0.004824 0.662790
v -0.305049 0.004824 0.736453
v -0.155513 0.004824 0.781814
v 0.000000 0.004824 0.797131
v 0.155512 0.004824 0.781814
v 0.305049 0.004824 0.736453
v 0.442862 0.004824 0.662790
v 0.563657 0.004824 0.563657
v 0.662790 0.004824 0.442862
v 0.736453 0.004824 0.305049
v 0.781814 0.004824 0.155512
v 0.797131 0.004824 0.000000
v 0.781814 0.004824 -0.155513
v 0.736453 0.004824 -0.305049
v 0.662790 0.004824 -0.442862
v 0.563657 0.004824 -0.563657
v 0.442862 0.004824 -0.662790
v 0.305049 0.004824 -0.736453
v 0.155513 0.004824 -0.781814
vn -0.000000 1.000000 0.000000
vn 0.000000 1.000000 0.000001
vn -0.000000 -1.000000 -0.000000
vn 0.000000 -1.000000 -0.000001
vn -0.097581 0.093941 0.990784
vn -0.097582 0.093941 0.990784
vn -0.289005 0.093941 0.952707
vn -0.289000 0.093941 0.952709
vn -0.469311 0.093941 0.878022
vn -0.469313 0.093941 0.878021
vn -0.631588 0.093941 0.769592
vn -0.631587 0.093941 0.769593
vn -0.769592 0.093941 0.631588
vn -0.769593 0.093941 0.631587
vn -0.878022 0.093941 0.469311
vn -0.878021 0.093941 0.469313
vn -0.952707 0.093941 0.289005
vn -0.952709 0.093941 0.289000
vn -0.990784 0.093941 0.097581
vn -0.990784 0.093941 0.097582
vn -0.990784 0.093941 -0.097581
vn -0.990784 0.093941 -0.097582
vn -0.952707 0.093942 -0.289005
vn -0.952709 0.093941 -0.289000
vn -0.878022 0.093941 -0.469311
vn -0.878021 0.093942 -0.469313
vn -0.769592 0.093941 -0.631588
vn -0.769593 0.093941 -0.631587
vn -0.631588 0.093942 -0.769592
vn -0.631591 0.093941 -0.769589
vn -0.469311 0.093942 -0.878022
vn -0.469308 0.093942 -0.878023
vn -0.289005 0.093941 -0.952707
vn -0.289000 0.093942 -0.952709
vn -0.097581 0.093941 -0.990784
vn -0.097582 0.093941 -0.990784
vn 0.097581 0.093941 -0.990784
vn 0.289005 0.093942 -0.952707
vn 0.289000 0.093941 -0.952709
vn 0.469311 0.093941 -0.878022
vn 0.469316 0.093942 -0.878019
vn 0.631588 0.093942 -0.769592
vn 0.631584 0.093941 -0.769595
vn 0.769591 0.093942 -0.631589
vn 0.769593 0.093942 -0.631587
vn 0.878024 0.093942 -0.469308
vn 0.952708 0.093941 -0.289003
vn 0.952709 0.093942 -0.289000
vn 0.990784 0.093941 -0.097581
vn 0.990784 0.093941 0.097582
vn 0.952708 0.093941 0.289003
vn 0.952709 0.093941 0.289000
vn 0.878020 0.093942 0.469314
vn 0.878021 0.093941 0.469313
vn 0.769588 0.093942 0.631593
vn 0.769589 0.093941 0.631591
vn 0.631593 0.093941 0.769588
vn 0.631587 0.093942 0.769593
vn 0.469304 0.093942 0.878025
vn 0.469310 0.093941 0.878022
vn 0.289005 0.093941 0.952707
vn 0.288998 0.093942 0.952709
vn 0.097582 0.093941 0.990784
vn 0.097583 0.093941 0.990784
vn -0.097438 -0.108848 -0.989271
vn -0.097437 -0.108848 -0.989272
vn -0.288567 -0.108848 -0.951252
vn -0.288557 -0.108849 -0.951255
vn -0.468602 -0.108848 -0.876678
vn -0.468593 -0.108849 -0.876683
vn -0.630626 -0.108849 -0.768416
vn -0.630624 -0.108849 -0.768417
vn -0.768420 -0.108849 -0.630620
vn -0.768418 -0.108849 -0.630624
vn -0.876686 -0.108848 -0.468588
vn -0.876680 -0.108849 -0.468598
vn -0.951255 -0.108848 -0.288557
vn -0.951254 -0.108849 -0.288562
vn -0.989272 -0.108848 -0.097431
vn -0.989271 -0.108849 -0.097437
vn -0.989271 -0.108849 0.097436
vn -0.989271 -0.108849 0.097437
vn -0.951252 -0.108849 0.288567
vn -0.951255 -0.108849 0.288558
vn -0.876681 -0.108849 0.468596
vn -0.876682 -0.108849 0.468595
vn -0.768416 -0.108849 0.630626
vn -0.768418 -0.108849 0.630624
vn -0.630620 -0.108849 0.768420
vn -0.630624 -0.108849 0.768417
vn -0.468594 -0.108849 0.876682
vn -0.468598 -0.108849 0.876680
vn -0.288561 -0.108849 0.951254
vn -0.288558 -0.108849 0.951255
vn -0.097431 -0.108849 0.989272
vn -0.097437 -0.108849 0.989271
vn 0.097437 -0.108849 0.989272
vn 0.097437 -0.108849 0.989271
vn 0.288557 -0.108849 0.951255
vn 0.468598 -0.108849 0.876680
vn 0.630621 -0.108848 0.768420
vn 0.630626 -0.108849 0.768416
vn 0.768420 -0.108849 0.630621
vn 0.768416 -0.108848 0.630626
vn 0.876680 -0.108849 0.468598
vn 0.951255 -0.108849 0.288557
vn 0.951254 -0.108849 0.288561
vn 0.989271 -0.108849 0.097437
vn 0.989272 -0.108849 0.097436
vn 0.989271 -0.108849 -0.097437
vn 0.989272 -0.108849 -0.097431
vn 0.951255 -0.108849 -0.288558
vn 0.951254 -0.108849 -0.288560
vn 0.876680 -0.108849 -0.468598
vn 0.876683 -0.108848 -0.468592
vn 0.768420 -0.108848 -0.630621
vn 0.768416 -0.108849 -0.630626
vn 0.630621 -0.108849 -0.768420
vn 0.630629 -0.108848 -0.768414
vn 0.468598 -0.108849 -0.876680
vn 0.468596 -0.108849 -0.876681
vn 0.288558 -0.108849 -0.951255
vn 0.288561 -0.108848 -0.951254
vn 0.097437 -0.108849 -0.989272
vn 0.097436 -0.108849 -0.989272
s off
f 1//1 2//1 3//1
f 1//1 4//1 2//1
f 1//1 5//1 4//1
f 1//1 6//1 5//1
f 1//1 7//1 6//1
f 1//1 8//1 7//1
f 1//2 9//2 8//2
f 1//1 10//1 9//1
f 1//1 11//1 10//1
f 1//2 12//2 11//2
f 1//1 13//1 12//1
f 1//1 14//1 13//1
f 1//1 15//1 14//1
f 1//1 16//1 15//1
f 1//1 17//1 16//1
f 1//1 18//1 17//1
f 1//1 19//1 18//1
f 1//1 20//1 19//1
f 1//1 21//1 20//1
f 1//1 22//1 21//1
f 1//1 23//1 22//1
f 1//1 24//1 23//1
f 1//2 25//2 24//2
f 1//1 26//1 25//1
f 1//1 27//1 26//1
f 1//2 28//2 27//2
f 1//1 29//1 28//1
f 1//1 30//1 29//1
f 1//1 31//1 30//1
f 1//1 32//1 31//1
f 1//1 33//1 32//1
f 1//1 3//1 33//1
f 34//3 35//3 36//3
f 36//3 35//3 37//3
f 37//3 35//3 38//3
f 38//3 35//3 39//3
f 39//3 35//3 40//3
f 40//4 35//4 41//4
f 41//3 35//3 42//3
f 42//3 35//3 43//3
f 43//3 35//3 44//3
f 44//3 35//3 45//3
f 45//4 35//4 46//4
f 46//3 35//3 47//3
f 47//3 35//3 48//3
f 48//3 35//3 49//3
f 49//3 35//3 50//3
f 50//3 35//3 51//3
f 51//3 35//3 52//3
f 52//3 35//3 53//3
f 53//3 35//3 54//3
f 54//3 35//3 55//3
f 55//3 35//3 56//3
f 56//4 35//4 57//4
f 57//3 35//3 58//3
f 58//3 35//3 59//3
f 59//3 35//3 60//3
f 60//3 35//3 61//3
f 61//4 35//4 62//4
f 62//3 35//3 63//3
f 63//3 35//3 64//3
f 64//3 35//3 65//3
f 65//3 35//3 66//3
f 66//3 35//3 34//3
f 67//5 68//5 66//5
f 67//6 66//6 34//6
f 68//7 69//7 65//7
f 68//8 65//8 66//8
f 69//9 70//9 64//9
f 69//10 64//10 65//10
f 70//11 71//11 63//11
f 70//12 63//12 64//12
f 71//13 72//13 62//13
f 71//14 62//14 63//14
f 72//15 73//15 61//15
f 72//16 61//16 62//16
f 73//17 74//17 60//17
f 73//18 60//18 61//18
f 74//19 75//19 59//19
f 74//20 59//20 60//20
f 75//21 76//21 58//21
f 75//22 58//22 59//22
f 76//23 77//23 57//23
f 76//24 57//24 58//24
f 77//25 78//25 56//25
f 77//26 56//26 57//26
f 78//27 79//27 55//27
f 78//28 55//28 56//28
f 79//29 80//29 54//29
f 79//30 54//30 55//30
f 80//31 81//31 53//31
f 80//32 53//32 54//32
f 81//33 82//33 52//33
f 81//34 52//34 53//34
f 82//35 83//35 51//35
f 82//36 51//36 52//36
f 83//37 84//37 50//37
f 83//37 50//37 51//37
f 84//38 85//38 49//38
f 84//39 49//39 50//39
f 85//40 86//40 48//40
f 85//41 48//41 49//41
f 86//42 87//42 47//42
f 86//43 47//43 48//43
f 87//44 88//44 46//44
f 87//45 46//45 47//45
f 88//46 89//46 45//46
f 88//46 45//46 46//46
f 89//47 90//47 44//47
f 89//48 44//48 45//48
f 90//49 91//49 43//49
f 90//49 43//49 44//49
f 91//50 92//50 42//50
f 91//50 42//50 43//50
f 92//51 93//51 41//51
f 92//52 41//52 42//52
f 93//53 94//53 40//53
f 93//54 40//54 41//54
f 94//55 95//55 39//55
f 94//56 39//56 40//56
f 95//57 96//57 38//57
f 95//58 38//58 39//58
f 96//59 97//59 37//59
f 96//60 37//60 38//60
f 97//61 98//61 36//61
f 97//62 36//62 37//62
f 98//63 67//63 34//63
f 98//64 34//64 36//64
f 99//3 67//3 98//3
f 99//3 98//3 100//3
f 100//3 98//3 101//3
f 98//3 97//3 101//3
f 101//3 97//3 96//3
f 101//3 96//3 102//3
f 102//3 96//3 95//3
f 102//3 95//3 103//3
f 103//3 95//3 94//3
f 103//3 94//3 104//3
f 104//3 94//3 105//3
f 94//3 93//3 105//3
f 105//3 93//3 92//3
f 105//3 92//3 106//3
f 106//3 92//3 91//3
f 106//3 91//3 107//3
f 107//3 91//3 108//3
f 91//3 90//3 108//3
f 108//3 90//3 89//3
f 108//3 89//3 109//3
f 109//3 89//3 88//3
f 109//3 88//3 110//3
f 110//3 88//3 87//3
f 110//3 87//3 111//3
f 111//3 87//3 86//3
f 111//3 86//3 112//3
f 112//3 86//3 85//3
f 112//3 85//3 113//3
f 113//3 85//3 84//3
f 113//3 84//3 114//3
f 114//3 84//3 83//3
f 114//3 83//3 115//3
f 115//3 83//3 82//3
f 115//3 82//3 116//3
f 116//3 82//3 81//3
f 116//3 81//3 117//3
f 117//3 81//3 80//3
f 117//3 80//3 118//3
f 118//3 80//3 79//3
f 118//3 79//3 119//3
f 119//3 79//3 78//3
f 119//3 78//3 120//3
f 120//3 78//3 77//3
f 120//3 77//3 121//3
f 121//3 77//3 76//3
f 121//3 76//3 122//3
f 122//3 76//3 75//3
f 122//3 75//3 123//3
f 123//3 75//3 74//3
f 123//3 74//3 124//3
f 124//3 74//3 73//3
f 124//3 73//3 125//3
f 125//3 73//3 72//3
f 125//3 72//3 126//3
f 126//3 72//3 71//3
f 126//3 71//3 127//3
f 127//3 71//3 70//3
f 127//3 70//3 128//3
f 128//3 70//3 69//3
f 128//3 69//3 129//3
f 129//3 69//3 68//3
f 129//3 68//3 130//3
f 67//3 99//3 130//3
f 67//3 130//3 68//3
f 3//65 99//65 100//65
f 3//66 100//66 33//66
f 101//67 32//67 33//67
f 101//68 33//68 100//68
f 102//69 31//69 32//69
f 102//70 32//70 101//70
f 103//71 30//71 31//71
f 103//72 31//72 102//72
f 104//73 29//73 30//73
f 104//74 30//74 103//74
f 105//75 28//75 29//75
f 105//76 29//76 104//76
f 106//77 27//77 28//77
f 106//78 28//78 105//78
f 107//79 26//79 27//79
f 107//80 27//80 106//80
f 108//81 25//81 26//81
f 108//82 26//82 107//82
f 109//83 24//83 25//83
f 109//84 25//84 108//84
f 110//85 23//85 24//85
f 110//86 24//86 109//86
f 111//87 22//87 23//87
f 111//88 23//88 110//88
f 112//89 21//89 22//89
f 112//90 22//90 111//90
f 113//91 20//91 21//91
f 113//92 21//92 112//92
f 114//93 19//93 20//93
f 114//94 20//94 113//94
f 115//95 18//95 19//95
f 115//96 19//96 114//96
f 116//97 17//97 18//97
f 116//98 18//98 115//98
f 117//99 16//99 17//99
f 117//99 17//99 116//99
f 118//100 15//100 16//100
f 118//100 16//100 117//100
f 119//101 14//101 118//101
f 14//102 15//102 118//102
f 120//103 13//103 119//103
f 13//104 14//104 119//104
f 121//105 12//105 120//105
f 12//105 13//105 120//105
f 122//106 11//106 121//106
f 11//107 12//107 121//107
f 123//108 10//108 122//108
f 10//109 11//109 122//109
f 124//110 9//110 123//110
f 9//111 10//111 123//111
f 125//112 8//112 124//112
f 8//113 9//113 124//113
f 126//114 7//114 125//114
f 7//115 8//115 125//115
f 127//116 6//116 126//116
f 6//117 7//117 126//117
f 128//118 5//118 127//118
f 5//119 6//119 127//119
f 129//120 4//120 128//120
f 4//121 5//121 128//121
f 130//122 2//122 129//122
f 2//123 4//123 129//123
f 99//124 3//124 130//124
f 3//125 2//125 130//125
