# Blender v2.62 (sub 0) OBJ File: ''
# www.blender.org
o Mesh_Mesh_Mesh_Cylinder.001
v 0.000000 1.007568 0.000000
v 0.188690 0.988984 0.000000
v 0.185064 0.988984 -0.036812
v 0.174327 0.988984 -0.072209
v 0.156890 0.988984 -0.104831
v 0.133424 0.988984 -0.133424
v 0.104831 0.988984 -0.156890
v 0.072209 0.988984 -0.174327
v 0.036812 0.988984 -0.185064
v 0.000000 0.988984 -0.188690
v -0.036812 0.988984 -0.185064
v -0.072209 0.988984 -0.174327
v -0.104831 0.988984 -0.156890
v -0.133424 0.988984 -0.133424
v -0.156890 0.988984 -0.104831
v -0.174327 0.988984 -0.072209
v -0.185064 0.988984 -0.036812
v -0.188690 0.988984 0.000000
v -0.185064 0.988984 0.036812
v -0.174327 0.988984 0.072208
v -0.156890 0.988984 0.104830
v -0.133424 0.988984 0.133424
v -0.104830 0.988984 0.156890
v -0.072208 0.988984 0.174327
v -0.036812 0.988984 0.185064
v 0.000000 0.988984 0.188690
v 0.036812 0.988984 0.185064
v 0.072208 0.988984 0.174327
v 0.104830 0.988984 0.156890
v 0.133424 0.988984 0.133424
v 0.156890 0.988984 0.104830
v 0.174327 0.988984 0.072208
v 0.185064 0.988984 0.036812
v 0.000000 0.002759 0.000000
v 0.000000 0.002759 -1.000000
v 0.195090 0.002759 -0.980785
v 0.000000 0.847241 0.000001
v 0.104792 0.847241 -0.526820
v 0.000001 0.847241 -0.537141
v 0.382683 0.002759 -0.923880
v 0.205556 0.847241 -0.496253
v 0.555570 0.002759 -0.831470
v 0.298421 0.847241 -0.446616
v 0.707107 0.002759 -0.707107
v 0.379817 0.847241 -0.379815
v 0.831470 0.002759 -0.555570
v 0.446617 0.847241 -0.298418
v 0.923880 0.002759 -0.382683
v 0.496254 0.847241 -0.205553
v 0.980785 0.002759 -0.195090
v 0.526821 0.847241 -0.104789
v 1.000000 0.002759 0.000000
v 0.537142 0.847241 0.000002
v 0.980785 0.002759 0.195090
v 0.526820 0.847241 0.104793
v 0.923880 0.002759 0.382683
v 0.496254 0.847241 0.205557
v 0.831470 0.002759 0.555570
v 0.446617 0.847241 0.298421
v 0.707107 0.002759 0.707107
v 0.379816 0.847241 0.379818
v 0.555570 0.002759 0.831470
v 0.298420 0.847241 0.446618
v 0.382683 0.002759 0.923880
v 0.205555 0.847241 0.496255
v 0.195090 0.002759 0.980785
v 0.104791 0.847241 0.526821
v 0.000000 0.002759 1.000000
v 0.000000 0.847241 0.537142
v -0.195091 0.002759 0.980785
v -0.104791 0.847241 0.526822
v -0.382684 0.002759 0.923879
v -0.205554 0.847241 0.496255
v -0.555571 0.002759 0.831469
v -0.298419 0.847241 0.446618
v -0.707107 0.002759 0.707106
v -0.379816 0.847241 0.379818
v -0.831470 0.002759 0.555570
v -0.446616 0.847241 0.298422
v -0.923880 0.002759 0.382683
v -0.496254 0.847241 0.205558
v -0.980785 0.002759 0.195089
v -0.526820 0.847241 0.104794
v -1.000000 0.002759 -0.000001
v -0.537142 0.847241 0.000003
v -0.980785 0.002759 -0.195091
v -0.526821 0.847241 -0.104788
v -0.923879 0.002759 -0.382684
v -0.496255 0.847241 -0.205552
v -0.831469 0.002759 -0.555571
v -0.446619 0.847241 -0.298417
v -0.707106 0.002759 -0.707108
v -0.379819 0.847241 -0.379813
v -0.555569 0.002759 -0.831470
v -0.298423 0.847241 -0.446614
v -0.382682 0.002759 -0.923880
v -0.205559 0.847241 -0.496252
v -0.195089 0.002759 -0.980786
v -0.104795 0.847241 -0.526819
v 0.537343 0.844567 0.000000
v 0.370129 0.933945 0.000000
v 0.527018 0.844567 0.104830
v 0.363017 0.933945 0.072208
v 0.341954 0.933945 0.141642
v 0.496440 0.844567 0.205632
v 0.307751 0.933945 0.205632
v 0.446785 0.844567 0.298532
v 0.261720 0.933945 0.261720
v 0.379959 0.844567 0.379959
v 0.205632 0.933945 0.307751
v 0.298532 0.844567 0.446784
v 0.141642 0.933945 0.341954
v 0.205633 0.844567 0.496440
v 0.072209 0.933945 0.363017
v 0.104831 0.844567 0.527018
v 0.000000 0.933945 0.370129
v 0.000000 0.844567 0.537343
v -0.072208 0.933945 0.363017
v -0.104830 0.844567 0.527018
v -0.141642 0.933945 0.341954
v -0.205632 0.844567 0.496441
v -0.205632 0.933945 0.307751
v -0.298532 0.844567 0.446785
v -0.261720 0.933945 0.261721
v -0.379959 0.844567 0.379959
v -0.307751 0.933945 0.205633
v -0.446785 0.844567 0.298532
v -0.341954 0.933945 0.141642
v -0.496441 0.844567 0.205633
v -0.363017 0.933945 0.072209
v -0.527019 0.844567 0.104831
v -0.370129 0.933945 0.000000
v -0.537343 0.844567 0.000000
v -0.363017 0.933945 -0.072208
v -0.527019 0.844567 -0.104830
v -0.341954 0.933945 -0.141642
v -0.496441 0.844567 -0.205632
v -0.307751 0.933945 -0.205632
v -0.446785 0.844567 -0.298532
v -0.261721 0.933945 -0.261720
v -0.379959 0.844567 -0.379959
v -0.205633 0.933945 -0.307751
v -0.298532 0.844567 -0.446785
v -0.141642 0.933945 -0.341954
v -0.205633 0.844567 -0.496441
v -0.072209 0.933945 -0.363017
v -0.104831 0.844567 -0.527019
v 0.000000 0.933945 -0.370129
v 0.000000 0.844567 -0.537344
v 0.072209 0.933945 -0.363017
v 0.104831 0.844567 -0.527019
v 0.141642 0.933945 -0.341954
v 0.205632 0.844567 -0.496441
v 0.205633 0.933945 -0.307751
v 0.298532 0.844567 -0.446785
v 0.261721 0.933945 -0.261721
v 0.379959 0.844567 -0.379959
v 0.307751 0.933945 -0.205633
v 0.446785 0.844567 -0.298532
v 0.341954 0.933945 -0.141642
v 0.496441 0.844567 -0.205633
v 0.363017 0.933945 -0.072209
v 0.527019 0.844567 -0.104831
vn 0.098011 0.995139 -0.009654
vn 0.094245 0.995139 -0.028587
vn 0.086856 0.995139 -0.046426
vn 0.076129 0.995139 -0.062479
vn 0.062479 0.995139 -0.076129
vn 0.046426 0.995139 -0.086856
vn 0.028589 0.995139 -0.094244
vn 0.009654 0.995139 -0.098011
vn -0.009654 0.995139 -0.098011
vn -0.028589 0.995139 -0.094244
vn -0.046426 0.995139 -0.086856
vn -0.062479 0.995139 -0.076129
vn -0.076129 0.995139 -0.062479
vn -0.086856 0.995139 -0.046426
vn -0.094245 0.995139 -0.028587
vn -0.098011 0.995139 -0.009654
vn -0.098011 0.995139 0.009654
vn -0.094245 0.995138 0.028588
vn -0.086856 0.995139 0.046426
vn -0.076131 0.995139 0.062478
vn -0.062478 0.995139 0.076131
vn -0.046426 0.995139 0.086856
vn -0.028587 0.995139 0.094245
vn -0.009654 0.995138 0.098011
vn 0.009654 0.995138 0.098011
vn 0.028587 0.995138 0.094245
vn 0.046426 0.995139 0.086856
vn 0.062478 0.995139 0.076131
vn 0.076131 0.995139 0.062478
vn 0.086856 0.995139 0.046426
vn 0.094245 0.995138 0.028588
vn 0.098011 0.995139 0.009654
vn -0.000000 -1.000000 -0.000000
vn -0.000000 1.000000 0.000000
vn 0.000000 1.000000 0.000001
vn -0.086046 0.478855 -0.873667
vn -0.086053 0.478856 -0.873666
vn -0.254844 0.478856 -0.840090
vn -0.254841 0.478855 -0.840092
vn -0.413844 0.478856 -0.774229
vn -0.413836 0.478855 -0.774234
vn -0.556935 0.478856 -0.678617
vn -0.556927 0.478855 -0.678624
vn -0.678621 0.478855 -0.556930
vn -0.678622 0.478855 -0.556930
vn -0.774238 0.478856 -0.413827
vn -0.774234 0.478854 -0.413836
vn -0.840093 0.478855 -0.254836
vn -0.840092 0.478855 -0.254840
vn -0.873667 0.478855 -0.086048
vn -0.873667 0.478854 -0.086050
vn -0.873666 0.478855 0.086057
vn -0.873667 0.478854 0.086050
vn -0.840093 0.478854 0.254836
vn -0.840094 0.478854 0.254835
vn -0.774229 0.478855 0.413844
vn -0.774234 0.478854 0.413837
vn -0.678622 0.478854 0.556931
vn -0.678620 0.478854 0.556932
vn -0.556926 0.478854 0.678625
vn -0.556932 0.478854 0.678621
vn -0.413834 0.478854 0.774235
vn -0.413837 0.478854 0.774234
vn -0.254846 0.478853 0.840091
vn -0.254840 0.478854 0.840092
vn -0.086040 0.478855 0.873668
vn -0.086050 0.478853 0.873668
vn 0.086048 0.478854 0.873667
vn 0.086050 0.478854 0.873667
vn 0.254836 0.478854 0.840094
vn 0.413837 0.478854 0.774234
vn 0.413834 0.478854 0.774235
vn 0.556930 0.478854 0.678622
vn 0.556931 0.478854 0.678622
vn 0.678622 0.478854 0.556930
vn 0.678621 0.478854 0.556931
vn 0.774234 0.478854 0.413836
vn 0.774233 0.478854 0.413837
vn 0.840093 0.478854 0.254837
vn 0.840093 0.478854 0.254836
vn 0.873667 0.478854 0.086050
vn 0.873666 0.478855 0.086057
vn 0.873667 0.478854 -0.086050
vn 0.873667 0.478855 -0.086048
vn 0.840093 0.478855 -0.254836
vn 0.840091 0.478854 -0.254844
vn 0.774233 0.478855 -0.413836
vn 0.774234 0.478856 -0.413834
vn 0.678622 0.478855 -0.556929
vn 0.678624 0.478856 -0.556926
vn 0.556930 0.478855 -0.678622
vn 0.556935 0.478856 -0.678617
vn 0.413836 0.478855 -0.774233
vn 0.413834 0.478855 -0.774235
vn 0.254836 0.478855 -0.840093
vn 0.254844 0.478856 -0.840090
vn 0.086050 0.478855 -0.873666
vn 0.086049 0.478855 -0.873667
vn 0.470890 0.880972 0.046379
vn 0.290166 0.956549 0.028579
vn 0.290166 0.956549 0.028581
vn 0.279017 0.956549 0.084637
vn 0.279015 0.956549 0.084640
vn 0.452793 0.880972 0.137356
vn 0.452794 0.880972 0.137354
vn 0.417298 0.880973 0.223046
vn 0.417298 0.880972 0.223049
vn 0.257143 0.956549 0.137445
vn 0.257142 0.956549 0.137447
vn 0.225391 0.956549 0.184969
vn 0.225386 0.956549 0.184973
vn 0.365760 0.880973 0.300176
vn 0.365761 0.880973 0.300175
vn 0.300178 0.880972 0.365762
vn 0.300173 0.880973 0.365763
vn 0.184973 0.956549 0.225386
vn 0.184969 0.956549 0.225390
vn 0.137447 0.956549 0.257143
vn 0.137444 0.956549 0.257143
vn 0.223047 0.880973 0.417297
vn 0.223052 0.880972 0.417297
vn 0.137354 0.880972 0.452794
vn 0.137358 0.880973 0.452791
vn 0.084641 0.956549 0.279015
vn 0.084636 0.956549 0.279018
vn 0.028579 0.956549 0.290167
vn 0.028581 0.956550 0.290166
vn 0.046379 0.880972 0.470891
vn -0.046380 0.880972 0.470890
vn -0.046379 0.880972 0.470890
vn -0.028581 0.956550 0.290166
vn -0.028579 0.956549 0.290166
vn -0.084636 0.956549 0.279018
vn -0.084640 0.956549 0.279015
vn -0.137349 0.880973 0.452793
vn -0.137356 0.880972 0.452794
vn -0.223049 0.880973 0.417296
vn -0.223047 0.880973 0.417296
vn -0.137444 0.956549 0.257143
vn -0.137447 0.956549 0.257143
vn -0.184970 0.956549 0.225388
vn -0.184968 0.956549 0.225389
vn -0.300176 0.880972 0.365762
vn -0.300173 0.880973 0.365763
vn -0.365763 0.880972 0.300176
vn -0.365761 0.880973 0.300177
vn -0.225388 0.956550 0.184968
vn -0.225386 0.956549 0.184973
vn -0.257142 0.956549 0.137447
vn -0.257143 0.956549 0.137443
vn -0.417296 0.880974 0.223045
vn -0.417296 0.880972 0.223051
vn -0.452792 0.880973 0.137354
vn -0.452790 0.880974 0.137357
vn -0.279015 0.956549 0.084641
vn -0.279017 0.956549 0.084637
vn -0.290166 0.956549 0.028579
vn -0.290165 0.956549 0.028581
vn -0.470890 0.880972 0.046379
vn -0.470889 0.880973 0.046374
vn -0.470889 0.880973 -0.046375
vn -0.470890 0.880972 -0.046380
vn -0.290166 0.956550 -0.028581
vn -0.290166 0.956549 -0.028579
vn -0.279018 0.956549 -0.084635
vn -0.279015 0.956549 -0.084640
vn -0.452790 0.880974 -0.137355
vn -0.452792 0.880973 -0.137353
vn -0.417296 0.880973 -0.223049
vn -0.417296 0.880973 -0.223046
vn -0.257142 0.956549 -0.137447
vn -0.257144 0.956549 -0.137444
vn -0.225386 0.956549 -0.184972
vn -0.225388 0.956549 -0.184970
vn -0.365762 0.880972 -0.300176
vn -0.365763 0.880973 -0.300173
vn -0.300176 0.880972 -0.365763
vn -0.300177 0.880973 -0.365761
vn -0.184972 0.956549 -0.225385
vn -0.184972 0.956549 -0.225386
vn -0.137447 0.956549 -0.257143
vn -0.137443 0.956549 -0.257144
vn -0.223044 0.880974 -0.417297
vn -0.223051 0.880972 -0.417296
vn -0.137353 0.880973 -0.452792
vn -0.137357 0.880974 -0.452789
vn -0.084641 0.956549 -0.279015
vn -0.084636 0.956549 -0.279018
vn -0.028579 0.956549 -0.290166
vn -0.028581 0.956550 -0.290166
vn -0.046378 0.880973 -0.470888
vn -0.046379 0.880973 -0.470888
vn 0.046378 0.880973 -0.470888
vn 0.046379 0.880973 -0.470888
vn 0.028581 0.956550 -0.290166
vn 0.028579 0.956549 -0.290166
vn 0.084636 0.956549 -0.279018
vn 0.084641 0.956549 -0.279015
vn 0.137357 0.880974 -0.452790
vn 0.137355 0.880973 -0.452792
vn 0.223049 0.880972 -0.417297
vn 0.223044 0.880973 -0.417297
vn 0.137443 0.956549 -0.257144
vn 0.137447 0.956549 -0.257143
vn 0.184969 0.956550 -0.225387
vn 0.184972 0.956549 -0.225386
vn 0.300175 0.880971 -0.365766
vn 0.300176 0.880972 -0.365763
vn 0.365763 0.880972 -0.300176
vn 0.365766 0.880971 -0.300175
vn 0.225387 0.956549 -0.184970
vn 0.225385 0.956550 -0.184971
vn 0.257143 0.956549 -0.137447
vn 0.257144 0.956549 -0.137442
vn 0.417297 0.880974 -0.223043
vn 0.417296 0.880972 -0.223051
vn 0.452792 0.880973 -0.137353
vn 0.452789 0.880974 -0.137357
vn 0.279015 0.956549 -0.084641
vn 0.279018 0.956549 -0.084635
vn 0.290166 0.956549 -0.028579
vn 0.290165 0.956550 -0.028581
vn 0.470890 0.880972 -0.046379
vn 0.470889 0.880973 -0.046374
s off
f 1//1 2//1 3//1
f 1//2 3//2 4//2
f 1//3 4//3 5//3
f 1//4 5//4 6//4
f 1//5 6//5 7//5
f 1//6 7//6 8//6
f 1//7 8//7 9//7
f 1//8 9//8 10//8
f 1//9 10//9 11//9
f 1//10 11//10 12//10
f 1//11 12//11 13//11
f 1//12 13//12 14//12
f 1//13 14//13 15//13
f 1//14 15//14 16//14
f 1//15 16//15 17//15
f 1//16 17//16 18//16
f 1//17 18//17 19//17
f 1//18 19//18 20//18
f 1//19 20//19 21//19
f 1//20 21//20 22//20
f 1//21 22//21 23//21
f 1//22 23//22 24//22
f 1//23 24//23 25//23
f 1//24 25//24 26//24
f 1//25 26//25 27//25
f 1//26 27//26 28//26
f 1//27 28//27 29//27
f 1//28 29//28 30//28
f 1//29 30//29 31//29
f 1//30 31//30 32//30
f 1//31 32//31 33//31
f 1//32 33//32 2//32
f 34//33 35//33 36//33
f 37//34 38//34 39//34
f 34//33 36//33 40//33
f 37//34 41//34 38//34
f 34//33 40//33 42//33
f 37//34 43//34 41//34
f 34//33 42//33 44//33
f 37//34 45//34 43//34
f 34//33 44//33 46//33
f 37//34 47//34 45//34
f 34//33 46//33 48//33
f 37//34 49//34 47//34
f 34//33 48//33 50//33
f 37//35 51//35 49//35
f 34//33 50//33 52//33
f 37//34 53//34 51//34
f 34//33 52//33 54//33
f 37//34 55//34 53//34
f 34//33 54//33 56//33
f 37//35 57//35 55//35
f 34//33 56//33 58//33
f 37//34 59//34 57//34
f 34//33 58//33 60//33
f 37//34 61//34 59//34
f 34//33 60//33 62//33
f 37//34 63//34 61//34
f 34//33 62//33 64//33
f 37//34 65//34 63//34
f 34//33 64//33 66//33
f 37//34 67//34 65//34
f 34//33 66//33 68//33
f 37//34 69//34 67//34
f 34//33 68//33 70//33
f 37//34 71//34 69//34
f 34//33 70//33 72//33
f 37//34 73//34 71//34
f 34//33 72//33 74//33
f 37//34 75//34 73//34
f 34//33 74//33 76//33
f 37//34 77//34 75//34
f 34//33 76//33 78//33
f 37//34 79//34 77//34
f 34//33 78//33 80//33
f 37//34 81//34 79//34
f 34//33 80//33 82//33
f 37//35 83//35 81//35
f 34//33 82//33 84//33
f 37//34 85//34 83//34
f 34//33 84//33 86//33
f 37//34 87//34 85//34
f 34//33 86//33 88//33
f 37//35 89//35 87//35
f 34//33 88//33 90//33
f 37//34 91//34 89//34
f 34//33 90//33 92//33
f 37//34 93//34 91//34
f 34//33 92//33 94//33
f 37//34 95//34 93//34
f 34//33 94//33 96//33
f 37//34 97//34 95//34
f 34//33 96//33 98//33
f 37//34 99//34 97//34
f 98//33 35//33 34//33
f 37//34 39//34 99//34
f 39//36 35//36 98//36
f 39//37 98//37 99//37
f 96//38 97//38 99//38
f 96//39 99//39 98//39
f 94//40 95//40 97//40
f 94//41 97//41 96//41
f 92//42 93//42 95//42
f 92//43 95//43 94//43
f 90//44 91//44 93//44
f 90//45 93//45 92//45
f 88//46 89//46 91//46
f 88//47 91//47 90//47
f 86//48 87//48 89//48
f 86//49 89//49 88//49
f 84//50 85//50 87//50
f 84//51 87//51 86//51
f 82//52 83//52 85//52
f 82//53 85//53 84//53
f 80//54 81//54 83//54
f 80//55 83//55 82//55
f 78//56 79//56 81//56
f 78//57 81//57 80//57
f 76//58 77//58 79//58
f 76//59 79//59 78//59
f 74//60 75//60 77//60
f 74//61 77//61 76//61
f 72//62 73//62 75//62
f 72//63 75//63 74//63
f 70//64 71//64 73//64
f 70//65 73//65 72//65
f 68//66 69//66 71//66
f 68//67 71//67 70//67
f 66//68 67//68 69//68
f 66//69 69//69 68//69
f 64//70 65//70 66//70
f 65//70 67//70 66//70
f 62//71 63//71 64//71
f 63//72 65//72 64//72
f 60//73 61//73 62//73
f 61//74 63//74 62//74
f 58//75 59//75 60//75
f 59//76 61//76 60//76
f 56//77 57//77 58//77
f 57//78 59//78 58//78
f 54//79 55//79 56//79
f 55//80 57//80 56//80
f 52//81 53//81 54//81
f 53//82 55//82 54//82
f 50//83 51//83 52//83
f 51//84 53//84 52//84
f 48//85 49//85 50//85
f 49//86 51//86 50//86
f 46//87 47//87 48//87
f 47//88 49//88 48//88
f 44//89 45//89 46//89
f 45//90 47//90 46//90
f 42//91 43//91 44//91
f 43//92 45//92 44//92
f 40//93 41//93 42//93
f 41//94 43//94 42//94
f 36//95 38//95 40//95
f 38//96 41//96 40//96
f 35//97 39//97 36//97
f 39//98 38//98 36//98
f 100//99 101//99 102//99
f 101//99 103//99 102//99
f 101//100 2//100 103//100
f 2//101 33//101 103//101
f 32//102 104//102 33//102
f 104//103 103//103 33//103
f 104//104 105//104 103//104
f 105//105 102//105 103//105
f 106//106 107//106 105//106
f 106//107 105//107 104//107
f 31//108 106//108 104//108
f 31//109 104//109 32//109
f 30//110 108//110 31//110
f 108//111 106//111 31//111
f 108//112 109//112 106//112
f 109//113 107//113 106//113
f 110//114 111//114 108//114
f 111//115 109//115 108//115
f 29//116 110//116 108//116
f 29//117 108//117 30//117
f 28//118 112//118 29//118
f 112//119 110//119 29//119
f 112//120 113//120 110//120
f 113//121 111//121 110//121
f 114//122 115//122 113//122
f 114//123 113//123 112//123
f 27//124 114//124 112//124
f 27//125 112//125 28//125
f 26//126 116//126 114//126
f 26//127 114//127 27//127
f 116//128 117//128 115//128
f 116//128 115//128 114//128
f 118//129 119//129 116//129
f 119//130 117//130 116//130
f 25//131 118//131 26//131
f 118//132 116//132 26//132
f 24//133 120//133 25//133
f 120//134 118//134 25//134
f 120//135 121//135 119//135
f 120//136 119//136 118//136
f 122//137 123//137 121//137
f 122//138 121//138 120//138
f 23//139 122//139 120//139
f 23//140 120//140 24//140
f 22//141 124//141 122//141
f 22//142 122//142 23//142
f 124//143 125//143 123//143
f 124//144 123//144 122//144
f 126//145 127//145 125//145
f 126//146 125//146 124//146
f 21//147 126//147 22//147
f 126//148 124//148 22//148
f 20//149 128//149 21//149
f 128//150 126//150 21//150
f 128//151 129//151 126//151
f 129//152 127//152 126//152
f 130//153 131//153 129//153
f 130//154 129//154 128//154
f 19//155 130//155 128//155
f 19//156 128//156 20//156
f 18//157 132//157 130//157
f 18//158 130//158 19//158
f 132//159 133//159 130//159
f 133//160 131//160 130//160
f 134//161 135//161 133//161
f 134//162 133//162 132//162
f 17//163 134//163 18//163
f 134//164 132//164 18//164
f 16//165 136//165 17//165
f 136//166 134//166 17//166
f 136//167 137//167 134//167
f 137//168 135//168 134//168
f 138//169 139//169 137//169
f 138//170 137//170 136//170
f 15//171 138//171 16//171
f 138//172 136//172 16//172
f 14//173 140//173 15//173
f 140//174 138//174 15//174
f 140//175 141//175 139//175
f 140//176 139//176 138//176
f 142//177 143//177 141//177
f 142//178 141//178 140//178
f 13//179 142//179 140//179
f 13//180 140//180 14//180
f 12//181 144//181 13//181
f 144//182 142//182 13//182
f 144//183 145//183 142//183
f 145//184 143//184 142//184
f 146//185 147//185 145//185
f 146//186 145//186 144//186
f 11//187 146//187 144//187
f 11//188 144//188 12//188
f 10//189 148//189 146//189
f 10//190 146//190 11//190
f 148//191 149//191 147//191
f 148//192 147//192 146//192
f 150//193 151//193 149//193
f 150//194 149//194 148//194
f 9//195 150//195 10//195
f 150//196 148//196 10//196
f 8//197 152//197 9//197
f 152//198 150//198 9//198
f 152//199 153//199 150//199
f 153//200 151//200 150//200
f 154//201 155//201 153//201
f 154//202 153//202 152//202
f 7//203 154//203 152//203
f 7//204 152//204 8//204
f 6//205 156//205 154//205
f 6//206 154//206 7//206
f 156//207 157//207 154//207
f 157//208 155//208 154//208
f 158//209 159//209 157//209
f 158//210 157//210 156//210
f 5//211 158//211 156//211
f 5//212 156//212 6//212
f 4//213 160//213 5//213
f 160//214 158//214 5//214
f 160//215 161//215 158//215
f 161//216 159//216 158//216
f 162//217 163//217 161//217
f 162//218 161//218 160//218
f 3//219 162//219 160//219
f 3//220 160//220 4//220
f 2//221 101//221 162//221
f 2//222 162//222 3//222
f 101//223 100//223 162//223
f 100//224 163//224 162//224
