# Blender v2.62 (sub 0) OBJ File: ''
# www.blender.org
o Mesh_Mesh_Cylinder.002
v 0.000000 0.000000 0.000000
v 0.000000 0.000000 -2.000000
v 0.390181 0.000000 -1.961571
v 0.000000 2.000000 0.000000
v 0.390184 2.000000 -1.961570
v 0.000003 2.000000 -2.000000
v 0.765367 0.000000 -1.847759
v 0.765370 2.000000 -1.847758
v 1.111140 0.000000 -1.662939
v 1.111144 2.000000 -1.662937
v 1.414214 0.000000 -1.414214
v 1.414216 2.000000 -1.414211
v 1.662939 0.000000 -1.111140
v 1.662941 2.000000 -1.111137
v 1.847759 0.000000 -0.765367
v 1.847761 2.000000 -0.765363
v 1.961571 0.000000 -0.390181
v 1.961571 2.000000 -0.390176
v 2.000000 0.000000 0.000000
v 2.000000 2.000000 0.000004
v 1.961571 -0.000000 0.390180
v 1.961570 2.000000 0.390184
v 1.847759 -0.000000 0.765367
v 1.847758 2.000000 0.765370
v 1.662939 -0.000000 1.111140
v 1.662938 2.000000 1.111142
v 1.414214 -0.000000 1.414214
v 1.414213 2.000000 1.414214
v 1.111140 -0.000000 1.662939
v 1.111140 2.000000 1.662940
v 0.765367 -0.000000 1.847759
v 0.765367 2.000000 1.847759
v 0.390180 -0.000000 1.961571
v 0.390182 2.000000 1.961570
v -0.000001 -0.000000 2.000000
v 0.000002 2.000000 2.000000
v -0.390181 -0.000000 1.961570
v -0.390178 2.000000 1.961571
v -0.765368 -0.000000 1.847759
v -0.765364 2.000000 1.847760
v -1.111141 -0.000000 1.662939
v -1.111137 2.000000 1.662942
v -1.414214 -0.000000 1.414213
v -1.414210 2.000000 1.414217
v -1.662940 -0.000000 1.111139
v -1.662936 2.000000 1.111145
v -1.847760 -0.000000 0.765365
v -1.847757 2.000000 0.765373
v -1.961571 -0.000000 0.390179
v -1.961569 2.000000 0.390188
v -2.000000 0.000000 -0.000002
v -2.000000 2.000000 0.000008
v -1.961570 0.000000 -0.390183
v -1.961572 2.000000 -0.390172
v -1.847758 0.000000 -0.765369
v -1.847763 2.000000 -0.765358
v -1.662938 0.000000 -1.111143
v -1.662945 2.000000 -1.111132
v -1.414212 0.000000 -1.414215
v -1.414222 2.000000 -1.414206
v -1.111138 0.000000 -1.662941
v -1.111151 2.000000 -1.662933
v -0.765364 0.000000 -1.847760
v -0.765379 2.000000 -1.847754
v -0.390178 0.000000 -1.961571
v -0.390194 2.000000 -1.961568
vn 0.000000 -1.000000 -0.000000
vn -0.000000 1.000000 0.000000
vn 0.000000 1.000000 0.000001
vn -0.098017 0.000000 -0.995185
vn -0.098020 0.000001 -0.995184
vn -0.290291 0.000001 -0.956938
vn -0.290284 -0.000001 -0.956941
vn -0.471401 0.000001 -0.881919
vn -0.471395 -0.000001 -0.881922
vn -0.634398 0.000000 -0.773007
vn -0.634393 -0.000001 -0.773011
vn -0.773015 0.000001 -0.634388
vn -0.773009 -0.000001 -0.634395
vn -0.881923 0.000001 -0.471392
vn -0.881921 -0.000000 -0.471397
vn -0.956942 0.000001 -0.290279
vn -0.956940 -0.000001 -0.290286
vn -0.995185 0.000001 -0.098014
vn -0.995185 -0.000000 -0.098018
vn -0.995184 0.000001 0.098021
vn -0.995185 -0.000001 0.098016
vn -0.956940 0.000000 0.290287
vn -0.956941 -0.000000 0.290284
vn -0.881919 0.000000 0.471401
vn -0.881921 -0.000001 0.471396
vn -0.773009 0.000000 0.634395
vn -0.773011 -0.000000 0.634393
vn -0.634393 -0.000000 0.773011
vn -0.634394 -0.000000 0.773010
vn -0.471393 0.000000 0.881923
vn -0.471398 -0.000001 0.881921
vn -0.290284 -0.000000 0.956941
vn -0.290283 -0.000000 0.956941
vn -0.098016 0.000000 0.995185
vn -0.098019 -0.000001 0.995185
vn 0.098018 0.000000 0.995185
vn 0.098016 -0.000000 0.995185
vn 0.290284 -0.000000 0.956940
vn 0.290285 -0.000000 0.956940
vn 0.471396 -0.000001 0.881922
vn 0.471398 -0.000000 0.881921
vn 0.634394 0.000000 0.773010
vn 0.634391 -0.000001 0.773012
vn 0.773010 -0.000000 0.634394
vn 0.773012 0.000000 0.634391
vn 0.881921 -0.000000 0.471398
vn 0.881920 -0.000000 0.471399
vn 0.956940 -0.000000 0.290285
vn 0.956940 -0.000000 0.290286
vn 0.995185 -0.000000 0.098016
vn 0.995185 0.000000 0.098019
vn 0.995185 0.000000 -0.098016
vn 0.956940 -0.000000 -0.290286
vn 0.956942 0.000001 -0.290281
vn 0.881921 -0.000000 -0.471398
vn 0.881921 0.000000 -0.471397
vn 0.773012 0.000000 -0.634391
vn 0.634391 -0.000000 -0.773012
vn 0.634395 0.000001 -0.773009
vn 0.471398 -0.000000 -0.881921
vn 0.471399 0.000000 -0.881920
vn 0.290286 0.000000 -0.956940
vn 0.098016 0.000000 -0.995185
vn 0.098018 0.000001 -0.995185
s off
f 1//1 2//1 3//1
f 4//2 5//2 6//2
f 1//1 3//1 7//1
f 4//2 8//2 5//2
f 1//1 7//1 9//1
f 4//2 10//2 8//2
f 1//1 9//1 11//1
f 4//2 12//2 10//2
f 1//1 11//1 13//1
f 4//2 14//2 12//2
f 1//1 13//1 15//1
f 4//2 16//2 14//2
f 1//1 15//1 17//1
f 4//3 18//3 16//3
f 1//1 17//1 19//1
f 4//2 20//2 18//2
f 1//1 19//1 21//1
f 4//2 22//2 20//2
f 1//1 21//1 23//1
f 4//2 24//2 22//2
f 1//1 23//1 25//1
f 4//2 26//2 24//2
f 1//1 25//1 27//1
f 4//2 28//2 26//2
f 1//1 27//1 29//1
f 4//2 30//2 28//2
f 1//1 29//1 31//1
f 4//2 32//2 30//2
f 1//1 31//1 33//1
f 4//2 34//2 32//2
f 1//1 33//1 35//1
f 4//2 36//2 34//2
f 1//1 35//1 37//1
f 4//2 38//2 36//2
f 1//1 37//1 39//1
f 4//2 40//2 38//2
f 1//1 39//1 41//1
f 4//2 42//2 40//2
f 1//1 41//1 43//1
f 4//2 44//2 42//2
f 1//1 43//1 45//1
f 4//2 46//2 44//2
f 1//1 45//1 47//1
f 4//2 48//2 46//2
f 1//1 47//1 49//1
f 4//2 50//2 48//2
f 1//1 49//1 51//1
f 4//2 52//2 50//2
f 1//1 51//1 53//1
f 4//2 54//2 52//2
f 1//1 53//1 55//1
f 4//3 56//3 54//3
f 1//1 55//1 57//1
f 4//2 58//2 56//2
f 1//1 57//1 59//1
f 4//2 60//2 58//2
f 1//1 59//1 61//1
f 4//2 62//2 60//2
f 1//1 61//1 63//1
f 4//2 64//2 62//2
f 1//1 63//1 65//1
f 4//2 66//2 64//2
f 2//1 1//1 65//1
f 4//2 6//2 66//2
f 6//4 2//4 65//4
f 6//5 65//5 66//5
f 63//6 64//6 66//6
f 63//7 66//7 65//7
f 61//8 62//8 64//8
f 61//9 64//9 63//9
f 59//10 60//10 62//10
f 59//11 62//11 61//11
f 57//12 58//12 60//12
f 57//13 60//13 59//13
f 55//14 56//14 58//14
f 55//15 58//15 57//15
f 53//16 54//16 56//16
f 53//17 56//17 55//17
f 51//18 52//18 54//18
f 51//19 54//19 53//19
f 49//20 50//20 52//20
f 49//21 52//21 51//21
f 47//22 48//22 50//22
f 47//23 50//23 49//23
f 45//24 46//24 48//24
f 45//25 48//25 47//25
f 43//26 44//26 46//26
f 43//27 46//27 45//27
f 41//28 42//28 44//28
f 41//29 44//29 43//29
f 39//30 40//30 42//30
f 39//31 42//31 41//31
f 37//32 38//32 40//32
f 37//33 40//33 39//33
f 35//34 36//34 38//34
f 35//35 38//35 37//35
f 33//36 34//36 36//36
f 33//37 36//37 35//37
f 31//38 32//38 34//38
f 31//39 34//39 33//39
f 29//40 30//40 32//40
f 29//41 32//41 31//41
f 27//42 28//42 30//42
f 27//43 30//43 29//43
f 25//44 26//44 28//44
f 25//45 28//45 27//45
f 23//46 24//46 25//46
f 24//47 26//47 25//47
f 21//48 22//48 23//48
f 22//49 24//49 23//49
f 19//50 20//50 21//50
f 20//51 22//51 21//51
f 17//52 18//52 19//52
f 18//52 20//52 19//52
f 15//53 16//53 17//53
f 16//54 18//54 17//54
f 13//55 14//55 15//55
f 14//56 16//56 15//56
f 11//57 12//57 13//57
f 12//57 14//57 13//57
f 9//58 10//58 11//58
f 10//59 12//59 11//59
f 7//60 8//60 9//60
f 8//61 10//61 9//61
f 3//62 5//62 7//62
f 5//62 8//62 7//62
f 2//63 6//63 3//63
f 6//64 5//64 3//64
