# Blender v2.68 (sub 0) OBJ File: ''
# www.blender.org
o Grid_Grid.001
v 0.293893 -0.951057 0.095491
v 0.293893 -0.951057 -0.095492
v 0.559017 -0.809017 0.181635
v -0.293893 -0.951057 0.095491
v -0.181636 -0.951057 0.250000
v -0.559017 -0.809017 0.181635
v 0.181636 -0.951057 0.250000
v 0.345492 -0.809017 0.475528
v -0.293893 -0.951057 -0.095492
v -0.559017 -0.809017 -0.181636
v -0.181636 -0.951057 -0.250000
v -0.345492 -0.809017 -0.475528
v 0.000000 -0.951057 -0.309017
v 0.000000 -0.809017 -0.587785
v 0.181636 -0.951057 -0.250000
v 0.345491 -0.809017 -0.475528
v 0.559017 -0.809017 -0.181636
v 0.000000 -0.951057 0.309017
v -0.345491 -0.809017 0.475528
v 0.000000 -0.587785 -0.809017
v 0.475528 -0.587785 -0.654509
v 0.769421 -0.587785 -0.250000
v 0.000000 -0.809017 0.587785
v -0.475528 -0.587786 0.654508
v 0.769421 -0.587785 0.250000
v -0.769421 -0.587785 0.250000
v 0.475528 -0.587786 0.654508
v -0.769421 -0.587785 -0.250000
v -0.475528 -0.587785 -0.654508
v 0.559017 -0.309017 0.769421
v -0.904509 -0.309017 -0.293893
v -0.559017 -0.309017 -0.769421
v 0.000000 -0.309017 -0.951057
v 0.559017 -0.309017 -0.769421
v 0.904508 -0.309017 -0.293893
v 0.000000 -0.587786 0.809017
v -0.559017 -0.309017 0.769421
v 0.904509 -0.309017 0.293893
v -0.904508 -0.309017 0.293893
v 0.587785 0.000000 -0.809017
v 0.951057 0.000000 -0.309017
v 0.000000 -0.309017 0.951057
v -0.587785 -0.000000 0.809017
v 0.951057 -0.000000 0.309017
v -0.951057 -0.000000 0.309017
v 0.587785 -0.000000 0.809017
v -0.951057 0.000000 -0.309017
v -0.587785 0.000000 -0.809017
v 0.000000 0.000000 -1.000000
v -0.559017 0.309017 -0.769421
v 0.000000 0.309017 -0.951057
v 0.559017 0.309017 -0.769421
v 0.904508 0.309017 -0.293893
v 0.000000 -0.000000 1.000000
v -0.559017 0.309017 0.769421
v 0.904509 0.309017 0.293893
v -0.904508 0.309017 0.293893
v 0.559017 0.309017 0.769421
v -0.904509 0.309017 -0.293893
v 0.000000 0.309017 0.951057
v -0.475528 0.587785 0.654509
v 0.769421 0.587785 0.250000
v 0.475528 0.587785 0.654508
v -0.769421 0.587785 -0.250000
v -0.475528 0.587785 -0.654508
v 0.000000 0.587785 -0.809017
v 0.475528 0.587785 -0.654508
v 0.769421 0.587785 -0.250000
v 0.000000 0.809017 -0.587785
v 0.345492 0.809017 -0.475528
v 0.559017 0.809017 -0.181636
v 0.000000 0.587785 0.809017
v -0.345492 0.809017 0.475528
v 0.559017 0.809017 0.181636
v -0.769421 0.587785 0.250000
v -0.559017 0.809017 0.181636
v 0.345492 0.809017 0.475528
v -0.559017 0.809017 -0.181635
v -0.345492 0.809017 -0.475528
v 0.181636 0.951056 0.250000
v -0.293893 0.951056 -0.095492
v -0.181636 0.951056 -0.250000
v 0.000000 0.951056 -0.309017
v 0.181636 0.951056 -0.250000
v 0.293893 0.951056 -0.095492
v 0.000000 0.809017 0.587785
v -0.181636 0.951056 0.250000
v 0.293893 0.951056 0.095492
v -0.293893 0.951056 0.095492
v 0.000000 -1.000000 -0.000000
v 0.000000 0.951056 0.309017
v 0.000000 1.000000 0.000000
vt 0.200139 0.100077
vt 0.300103 0.100077
vt 0.200139 0.200052
vt 0.799925 0.100059
vt 0.899888 0.100052
vt 0.799932 0.200033
vt 0.100175 0.100077
vt 0.100174 0.200051
vt 0.699961 0.100065
vt 0.699967 0.200040
vt 0.599997 0.100070
vt 0.600001 0.200045
vt 0.500033 0.100073
vt 0.500036 0.200048
vt 0.400068 0.100076
vt 0.400070 0.200051
vt 0.300104 0.200052
vt 0.999851 0.100043
vt 0.899897 0.200024
vt 0.500039 0.300025
vt 0.400071 0.300027
vt 0.300104 0.300028
vt 0.999860 0.200015
vt 0.899906 0.299999
vt 0.200138 0.300027
vt 0.799940 0.300008
vt 0.100172 0.300025
vt 0.699973 0.300016
vt 0.600006 0.300021
vt 0.100170 0.400001
vt 0.699980 0.399993
vt 0.600011 0.399999
vt 0.500042 0.400003
vt 0.400072 0.400005
vt 0.300104 0.400005
vt 0.999871 0.299988
vt 0.899917 0.399975
vt 0.200136 0.400003
vt 0.799949 0.399985
vt 0.400073 0.499985
vt 0.300103 0.499984
vt 0.999883 0.399963
vt 0.899928 0.499953
vt 0.200133 0.499981
vt 0.799958 0.499964
vt 0.100166 0.499977
vt 0.699987 0.499973
vt 0.600016 0.499980
vt 0.500044 0.499983
vt 0.600021 0.599962
vt 0.500047 0.599966
vt 0.400073 0.599967
vt 0.300100 0.599965
vt 0.999897 0.499939
vt 0.899941 0.599933
vt 0.200129 0.599960
vt 0.799969 0.599946
vt 0.100159 0.599954
vt 0.699995 0.599956
vt 0.999913 0.599918
vt 0.899956 0.699916
vt 0.200122 0.699942
vt 0.100150 0.699933
vt 0.700004 0.699941
vt 0.600026 0.699948
vt 0.500049 0.699951
vt 0.400072 0.699951
vt 0.300096 0.699948
vt 0.500050 0.799940
vt 0.400070 0.799939
vt 0.300091 0.799934
vt 0.999931 0.699899
vt 0.899973 0.799903
vt 0.200114 0.799926
vt 0.799980 0.699930
vt 0.799993 0.799919
vt 0.100139 0.799915
vt 0.700013 0.799930
vt 0.600031 0.799937
vt 0.100124 0.899899
vt 0.700022 0.899923
vt 0.600036 0.899930
vt 0.500051 0.899932
vt 0.400066 0.899930
vt 0.300084 0.899924
vt 0.999951 0.799883
vt 0.899992 0.899894
vt 0.200103 0.899914
vt 0.800007 0.899911
vt 0.599993 0.000097
vt 0.500030 0.000100
vt 0.400066 0.000101
vt 0.999842 0.000071
vt 0.300102 0.000102
vt 0.899880 0.000079
vt 0.200138 0.000103
vt 0.799918 0.000087
vt 0.100175 0.000103
vt 0.000211 0.100076
vt 0.699956 0.000092
vt 0.000210 0.200050
vt 0.000208 0.300023
vt 0.000205 0.399997
vt 0.000200 0.499971
vt 0.000192 0.599945
vt 0.000181 0.699922
vt 0.000167 0.799900
vt 0.000149 0.899881
vt 0.400062 0.999926
vt 0.300074 0.999918
vt 0.999974 0.899872
vt 0.900012 0.999890
vt 0.200089 0.999905
vt 0.800022 0.999908
vt 0.100106 0.999888
vt 0.700031 0.999920
vt 0.000127 0.999866
vt 0.600041 0.999927
vt 0.500051 0.999929
vn 0.320231 -0.941588 0.104038
vn 0.320231 -0.941588 -0.104038
vn 0.577685 -0.794366 0.187689
vn -0.320231 -0.941588 0.104038
vn -0.197913 -0.941588 0.272378
vn -0.577685 -0.794366 0.187689
vn 0.197913 -0.941588 0.272378
vn 0.357006 -0.794366 0.491409
vn -0.320231 -0.941588 -0.104038
vn -0.577685 -0.794366 -0.187689
vn -0.197913 -0.941588 -0.272378
vn -0.357006 -0.794366 -0.491409
vn 0.000000 -0.941588 -0.336711
vn 0.000000 -0.794366 -0.607410
vn 0.197913 -0.941588 -0.272378
vn 0.357006 -0.794366 -0.491409
vn 0.577685 -0.794366 -0.187689
vn 0.000000 -0.941588 0.336711
vn -0.357006 -0.794366 0.491409
vn 0.000000 -0.573504 -0.819178
vn 0.481491 -0.573504 -0.662740
vn 0.779077 -0.573504 -0.253121
vn 0.000000 -0.794366 0.607410
vn -0.481491 -0.573504 0.662740
vn 0.779077 -0.573504 0.253121
vn -0.779077 -0.573504 0.253121
vn 0.481491 -0.573504 0.662740
vn -0.779077 -0.573504 -0.253121
vn -0.481491 -0.573504 -0.662740
vn 0.560625 -0.300302 0.771661
vn -0.907132 -0.300302 -0.294748
vn -0.560625 -0.300302 -0.771661
vn 0.000000 -0.300302 -0.953825
vn 0.560625 -0.300302 -0.771661
vn 0.907132 -0.300302 -0.294748
vn 0.000000 -0.573504 0.819178
vn -0.560625 -0.300302 0.771661
vn 0.907132 -0.300302 0.294748
vn -0.907132 -0.300302 0.294748
vn 0.587756 0.000000 -0.809015
vn 0.951048 0.000000 -0.309000
vn 0.000000 -0.300302 0.953825
vn -0.587756 0.000000 0.809015
vn 0.951048 0.000000 0.309000
vn -0.951048 0.000000 0.309000
vn 0.587756 0.000000 0.809015
vn -0.951048 0.000000 -0.309000
vn -0.587756 0.000000 -0.809015
vn 0.000000 0.000000 -1.000000
vn -0.560625 0.300302 -0.771661
vn 0.000000 0.300302 -0.953825
vn 0.560625 0.300302 -0.771661
vn 0.907132 0.300302 -0.294748
vn 0.000000 0.000000 1.000000
vn -0.560625 0.300302 0.771661
vn 0.907132 0.300302 0.294748
vn -0.907132 0.300302 0.294748
vn 0.560625 0.300302 0.771661
vn -0.907132 0.300302 -0.294748
vn 0.000000 0.300302 0.953825
vn -0.481491 0.573504 0.662740
vn 0.779077 0.573504 0.253121
vn 0.481491 0.573504 0.662740
vn -0.779077 0.573504 -0.253121
vn -0.481491 0.573504 -0.662740
vn 0.000000 0.573504 -0.819178
vn 0.481491 0.573504 -0.662740
vn 0.779077 0.573504 -0.253121
vn 0.000000 0.794366 -0.607410
vn 0.357006 0.794366 -0.491409
vn 0.577685 0.794366 -0.187689
vn 0.000000 0.573504 0.819178
vn -0.357006 0.794366 0.491409
vn 0.577685 0.794366 0.187689
vn -0.779077 0.573504 0.253121
vn -0.577685 0.794366 0.187689
vn 0.357006 0.794366 0.491409
vn -0.577685 0.794366 -0.187689
vn -0.357006 0.794366 -0.491409
vn 0.197913 0.941588 0.272378
vn -0.320231 0.941588 -0.104038
vn -0.197913 0.941588 -0.272378
vn 0.000000 0.941588 -0.336711
vn 0.197913 0.941588 -0.272378
vn 0.320231 0.941588 -0.104038
vn 0.000000 0.794366 0.607410
vn -0.197913 0.941588 0.272378
vn 0.320231 0.941588 0.104038
vn -0.320231 0.941588 0.104038
vn 0.000000 -1.000000 0.000000
vn 0.000000 0.941588 0.336711
vn 0.000000 1.000000 0.000000
s 1
f 1/1/1 2/2/2 3/3/3
f 4/4/4 5/5/5 6/6/6
f 7/7/7 1/1/1 8/8/8
f 9/9/9 4/4/4 10/10/10
f 11/11/11 9/9/9 12/12/12
f 13/13/13 11/11/11 14/14/14
f 15/15/15 13/13/13 16/16/16
f 2/2/2 15/15/15 17/17/17
f 5/5/5 18/18/18 19/19/19
f 14/14/14 12/12/12 20/20/20
f 16/16/16 14/14/14 21/21/21
f 17/17/17 16/16/16 22/22/22
f 19/19/19 23/23/23 24/24/24
f 3/3/3 17/17/17 25/25/25
f 6/6/6 19/19/19 26/26/26
f 8/8/8 3/3/3 27/27/27
f 10/10/10 6/6/6 28/28/28
f 12/12/12 10/10/10 29/29/29
f 27/27/27 25/25/25 30/30/30
f 28/28/28 26/26/26 31/31/31
f 29/29/29 28/28/28 32/32/32
f 20/20/20 29/29/29 33/33/33
f 21/21/21 20/20/20 34/34/34
f 22/22/22 21/21/21 35/35/35
f 24/24/24 36/36/36 37/37/37
f 25/25/25 22/22/22 38/38/38
f 26/26/26 24/24/24 39/39/39
f 34/34/34 33/33/33 40/40/40
f 35/35/35 34/34/34 41/41/41
f 37/37/37 42/42/42 43/43/43
f 38/38/38 35/35/35 44/44/44
f 39/39/39 37/37/37 45/45/45
f 30/30/30 38/38/38 46/46/46
f 31/31/31 39/39/39 47/47/47
f 32/32/32 31/31/31 48/48/48
f 33/33/33 32/32/32 49/49/49
f 48/48/48 47/47/47 50/50/50
f 49/49/49 48/48/48 51/51/51
f 40/40/40 49/49/49 52/52/52
f 41/41/41 40/40/40 53/53/53
f 43/43/43 54/54/54 55/55/55
f 44/44/44 41/41/41 56/56/56
f 45/45/45 43/43/43 57/57/57
f 46/46/46 44/44/44 58/58/58
f 47/47/47 45/45/45 59/59/59
f 55/55/55 60/60/60 61/61/61
f 56/56/56 53/53/53 62/62/62
f 57/57/57 55/55/55 61/61/61
f 58/58/58 56/56/56 63/63/63
f 59/59/59 57/57/57 64/64/64
f 50/50/50 59/59/59 65/65/65
f 51/51/51 50/50/50 66/66/66
f 52/52/52 51/51/51 67/67/67
f 53/53/53 52/52/52 68/68/68
f 66/66/66 65/65/65 69/69/69
f 67/67/67 66/66/66 70/70/70
f 68/68/68 67/67/67 71/71/71
f 61/61/61 72/72/72 73/73/73
f 62/62/62 68/68/68 74/74/74
f 75/75/75 61/61/61 76/76/76
f 63/63/63 62/62/62 77/77/77
f 64/64/64 75/75/75 78/78/78
f 65/65/65 64/64/64 79/79/79
f 77/77/77 74/74/74 80/80/80
f 78/78/78 76/76/76 81/81/81
f 79/79/79 78/78/78 82/82/82
f 69/69/69 79/79/79 83/83/83
f 70/70/70 69/69/69 84/84/84
f 71/71/71 70/70/70 85/85/85
f 73/73/73 86/86/86 87/87/87
f 74/74/74 71/71/71 88/88/88
f 76/76/76 73/73/73 89/89/89
f 90/90/90 11/11/11 13/13/13
f 90/91/90 13/13/13 15/15/15
f 90/92/90 15/15/15 2/2/2
f 90/93/90 18/18/18 5/5/5
f 2/2/2 1/1/1 90/94/90
f 90/95/90 5/5/5 4/4/4
f 90/96/90 1/1/1 7/7/7
f 90/97/90 4/4/4 9/9/9
f 90/98/90 7/7/7 18/99/18
f 90/100/90 9/9/9 11/11/11
f 18/99/18 7/7/7 23/101/23
f 23/101/23 8/8/8 36/102/36
f 36/102/36 27/27/27 42/103/42
f 42/103/42 30/30/30 54/104/54
f 54/104/54 46/46/46 60/105/60
f 60/105/60 58/58/58 72/106/72
f 72/106/72 63/63/63 86/107/86
f 86/107/86 77/77/77 91/108/91
f 84/84/84 83/83/83 92/109/92
f 85/85/85 84/84/84 92/110/92
f 87/87/87 91/111/91 92/112/92
f 88/88/88 85/85/85 92/113/92
f 89/89/89 87/87/87 92/114/92
f 80/80/80 88/88/88 92/115/92
f 81/81/81 89/89/89 92/116/92
f 91/108/91 80/80/80 92/117/92
f 82/82/82 81/81/81 92/118/92
f 83/83/83 82/82/82 92/119/92
f 2/2/2 17/17/17 3/3/3
f 5/5/5 19/19/19 6/6/6
f 1/1/1 3/3/3 8/8/8
f 4/4/4 6/6/6 10/10/10
f 9/9/9 10/10/10 12/12/12
f 11/11/11 12/12/12 14/14/14
f 13/13/13 14/14/14 16/16/16
f 15/15/15 16/16/16 17/17/17
f 18/18/18 23/23/23 19/19/19
f 12/12/12 29/29/29 20/20/20
f 14/14/14 20/20/20 21/21/21
f 16/16/16 21/21/21 22/22/22
f 23/23/23 36/36/36 24/24/24
f 17/17/17 22/22/22 25/25/25
f 19/19/19 24/24/24 26/26/26
f 3/3/3 25/25/25 27/27/27
f 6/6/6 26/26/26 28/28/28
f 10/10/10 28/28/28 29/29/29
f 25/25/25 38/38/38 30/30/30
f 26/26/26 39/39/39 31/31/31
f 28/28/28 31/31/31 32/32/32
f 29/29/29 32/32/32 33/33/33
f 20/20/20 33/33/33 34/34/34
f 21/21/21 34/34/34 35/35/35
f 36/36/36 42/42/42 37/37/37
f 22/22/22 35/35/35 38/38/38
f 24/24/24 37/37/37 39/39/39
f 33/33/33 49/49/49 40/40/40
f 34/34/34 40/40/40 41/41/41
f 42/42/42 54/54/54 43/43/43
f 35/35/35 41/41/41 44/44/44
f 37/37/37 43/43/43 45/45/45
f 38/38/38 44/44/44 46/46/46
f 39/39/39 45/45/45 47/47/47
f 31/31/31 47/47/47 48/48/48
f 32/32/32 48/48/48 49/49/49
f 47/47/47 59/59/59 50/50/50
f 48/48/48 50/50/50 51/51/51
f 49/49/49 51/51/51 52/52/52
f 40/40/40 52/52/52 53/53/53
f 54/54/54 60/60/60 55/55/55
f 41/41/41 53/53/53 56/56/56
f 43/43/43 55/55/55 57/57/57
f 44/44/44 56/56/56 58/58/58
f 45/45/45 57/57/57 59/59/59
f 60/60/60 72/72/72 61/61/61
f 53/53/53 68/68/68 62/62/62
f 75/75/75 57/57/57 61/61/61
f 56/56/56 62/62/62 63/63/63
f 57/57/57 75/75/75 64/64/64
f 59/59/59 64/64/64 65/65/65
f 50/50/50 65/65/65 66/66/66
f 51/51/51 66/66/66 67/67/67
f 52/52/52 67/67/67 68/68/68
f 65/65/65 79/79/79 69/69/69
f 66/66/66 69/69/69 70/70/70
f 67/67/67 70/70/70 71/71/71
f 72/72/72 86/86/86 73/73/73
f 68/68/68 71/71/71 74/74/74
f 61/61/61 73/73/73 76/76/76
f 62/62/62 74/74/74 77/77/77
f 75/75/75 76/76/76 78/78/78
f 64/64/64 78/78/78 79/79/79
f 74/74/74 88/88/88 80/80/80
f 76/76/76 89/89/89 81/81/81
f 78/78/78 81/81/81 82/82/82
f 79/79/79 82/82/82 83/83/83
f 69/69/69 83/83/83 84/84/84
f 70/70/70 84/84/84 85/85/85
f 86/86/86 91/111/91 87/87/87
f 71/71/71 85/85/85 88/88/88
f 73/73/73 87/87/87 89/89/89
f 7/7/7 8/8/8 23/101/23
f 8/8/8 27/27/27 36/102/36
f 27/27/27 30/30/30 42/103/42
f 30/30/30 46/46/46 54/104/54
f 46/46/46 58/58/58 60/105/60
f 58/58/58 63/63/63 72/106/72
f 63/63/63 77/77/77 86/107/86
f 77/77/77 80/80/80 91/108/91
